<svg xmlns="http://www.w3.org/2000/svg" viewBox="0 0 438.78 521.14"><defs><style>.cls-1{fill:#090a0a;}.cls-2{fill:#fdfdfd;}.cls-3{fill:#aaa;}.cls-4{fill:#e8e7e7;}.cls-5{fill:#cdcecd;}</style></defs><g id="Capa_2" data-name="Capa 2"><g id="Capa_1-2" data-name="Capa 1"><path class="cls-1" d="M136.28,26.28a197.18,197.18,0,0,1,28.58-15.41C184.12,3.34,204.18.2,224.77,0l5.81.23a13.3,13.3,0,0,0,6.1.66l3,.23a180,180,0,0,1,44.85,14.09c8.21,4.63,16.28,9.51,24,14.88a25.2,25.2,0,0,0,5.92,5c7.83,7.94,15.57,16,22.17,25l7.72,12,8.79,19.22a230.6,230.6,0,0,1,7.51,27.57c2,11.56,2,23.23,2,34.91a67.71,67.71,0,0,0,0,13,5.42,5.42,0,0,0,.66,4.12,22.37,22.37,0,0,0,2.08,8.84c1.66,7.25,4,14.2,8.93,20a28.8,28.8,0,0,0,10.83,10c5.82,4.36,12.57,6.89,19.13,9.8,12.71,6.44,23.2,15.24,29.88,28.09a61.62,61.62,0,0,1,4.24,18.89c0,.34,0,.67,0,1v2c-.6,5.87-2.39,11.43-4.24,17l-8.77,13A63.3,63.3,0,0,1,403,313.23c-9.24,2.28-18.76,2.28-28.48,3.32l6.87,12.79a59.07,59.07,0,0,1,1.89,29.93c-4.77,9.52-4.57,19.69-3.9,29.92-.28,5.73-.22,11.61-6.5,14.69-7.85.87-10.79-1.45-11.84-9.29-.24-1.78-.63-3.54-.95-5.31-1.12-3.61-4-4.61-7.31-4.74-4.12-.17-8.24-.11-12.36-.16-2.44-.38-4.87-.95-7.32-1.1-4.16-.28-7,1.35-7.46,5.9q-.17,9.09-.32,18.19c-.14,7.1-1.74,9.35-8.24,11.6l-1.24,0-2.37-.7c-3.71-2.36-5.08-5.78-5-10.11.07-6.28-.15-12.56-.24-18.84-2.61-5.79-5.42-5.83-10.74-.13a69.89,69.89,0,0,1-13,9.74c-2.35.73-4.68,1.6-7.07,2.16-13.23,3.12-13.24,3.09-13.64,16.61,0,.5,0,1,.07,1.48-3.9,22.62-14.6,39.07-39.07,43A43.78,43.78,0,0,1,195,452.63l-3.84-3.72c-7.25-8.74-11.13-19.09-14.21-29.81-1.53-6.77-4.3-9.18-8.62-7-5.06,2.59-9,6.56-9.46,12.55a157.35,157.35,0,0,0,0,24.37c-.2,2.95-.27,5.93-.62,8.86-.65,5.35-4.1,8.81-8.82,9.09-4.41.26-8-2.7-9.65-7.68-1.13-3.39-.31-6.89-.91-10.3.07-4.8-.11-9.63.26-14.41.58-7.55-2.65-13-9.08-16.29-10.35-5.36-18.07-13.28-24-23.12l-3-6c-2.27-7.27-4.39-14.58-5-22.22-.23-3-1.63-3.43-4.31-2.92-6.33,1.2-9.6,4.69-9.76,11.16-.11,4.8.39,9.67-2.49,14a16.16,16.16,0,0,1-6.4,3.23,12.81,12.81,0,0,1-7.91-3.21c-2.94-4.7-3-9.95-2.77-15.21A17,17,0,0,0,58,359.3c-5.48-7.23-10-14.93-11.94-23.94a11.91,11.91,0,0,0-.86-6c0-2.63,0-5.26,0-7.89A14,14,0,0,0,46,315.4c.06-.67.12-1.35.19-2a154.52,154.52,0,0,1,8.58-25.46C40.51,290,27.34,291,15.24,283.65A47.8,47.8,0,0,1,3.15,269.53C-1,259.67-.66,249.65,2,239.54c2.91-7.64,7.64-14.08,13.25-19.93,4.62-3.85,9.79-6.88,14.91-10,5.07-2.19,10.36-3.9,15-7,10.7-4.77,18.32-12.72,23.73-23A16.12,16.12,0,0,0,72,172c1.15-7.38,0-14.78-.06-22.18.06-10.07,1.71-20,3.25-29.87v0a3.33,3.33,0,0,0,.68-3.09l.34-2q4.41-12.5,8.8-25a260,260,0,0,1,16.2-28.62L105,56a212.38,212.38,0,0,1,25.85-25.92ZM104,322.34q0-16.32.08-32.63c0-2.23.22-4.4,2.46-5.52s3.7.48,5.24,1.7c2.2,14.8,2.88,29.72,3.57,44.65.54,11.92.57,23.9,2.71,35.7.61,9,3.16,17.28,8.94,24.27a20.85,20.85,0,0,0,29.37,3.42,63.88,63.88,0,0,0,7.92-7.52c2.82-3,5.23-6.47,8.13-9.41,4.89-4.95,11.7-4.14,15.63,1.62a18.11,18.11,0,0,1,2.81,7.37c1.65,10,2.94,20.13,6,29.83,3.16,10,6.95,19.77,17.88,24.13,8.43,2.93,16.27,1,22-5.62,6.95-8.05,8.57-17.62,7.51-27.86-.93-9-3.9-17.38-6.84-25.81q-.72-10.47,9.21-7c4.16,1.47,7.64,4.43,12,5.46a18.91,18.91,0,0,0,11.55,1.92c8.31-1.06,12.55-6.06,12.41-14.28q-.11-7.2,0-14.41c.08-8.29,6.07-13,14.22-11.39,6.57,1.33,11.7,5.32,16.91,9.1,7.64,5.54,15,11.45,24.48,13.74,13.49,3.27,24.27-2.17,26-13.46,1.14-7.3-.79-14.19-4.56-20.46-3-5-6.48-9.62-9.42-14.61-4.91-8.32-2.74-14.06,6.28-17.38,1.8-.15,3.6-.28,5.39-.45,9.46-.9,19-.28,28.42-2,10.24-.81,18.36-5.2,23.82-14.08,6.65-11.05,5.85-21.82-2.35-31.61-4.88-5.82-11.11-9.8-17.79-13.2-7.51-3.82-15.41-6.84-22.53-11.41l-7.23-5.48c-7-8.66-13.22-17.76-16.58-28.5-1.73-5.51-3.21-11.1-4.8-16.66l-.23-4.56a1.74,1.74,0,0,0,0-2.36c.16-3.82.29-7.63.49-11.45,1.78-32.94-5.16-63.39-26.18-89.6C264,.59,165.25,4.31,117.57,71.91c-20,28.37-29,59.94-25.8,94.48,3.75,40.67-.09,80.12-15.59,118.22-4.67,11.49-9,23.22-10.4,35.7a16.24,16.24,0,0,0,0,10.22c1.9,14.79,13.5,20.77,26.3,13.36C100.29,339.15,107,333.38,104,322.34Zm-39.51-108-8.35,5.3c-3.56,1.6-7.11,3.23-10.69,4.79-6.07,2.65-12.08,5.46-16.94,10-6,5.65-10.19,12.15-8.11,21,0,7.09,5.8,13.19,13.35,14.05,9.14,1.05,17.84-.64,26.3-4.07a6.63,6.63,0,0,0,4.07-4.57,234.72,234.72,0,0,0,8.71-33.69A133,133,0,0,0,74.58,205Z"/><path class="cls-2" d="M236.68.89a13.3,13.3,0,0,1-6.1-.66C232.62.37,234.76-.44,236.68.89Z"/><path class="cls-2" d="M342.64,170c.08,1.52.15,3,.23,4.56a1.8,1.8,0,0,0-1.21,1.93c.21,7.37-1.77,14.7-.46,22.09-1.44.15-2.1-.85-2.75-1.86-2.57-7.61-3.14-15.47-3-23.44s.12-15.87.17-23.8c0-1.08,0-2.15,0-3.23l.59-2.22c.82-7-.69-13.83-1.73-20.66a117.42,117.42,0,0,0-21-51.39c-.83-1.16-1.56-2.14-3.16-1.77h0c.32-1.78.12-3.17-2.23-2.94L306.56,65l-.86-1-1.1-1.1L303.53,62l-2-.87c.24-2.2-1.47-3.27-2.77-4.45A117.21,117.21,0,0,0,266,35.45a45.17,45.17,0,0,0-18.72-4.19c9.32,4.62,16.6,9.77,23.77,15.07,2.09,1.55,5.29,3.22,5.09,5.71-.35,4.39,2.05,7.14,4.08,10.26,6.59,10.16,12.9,20.48,17.8,31.59,6.35,14.38,10.51,29.45,10.31,45.14-.2,15.19,6.63,28.05,11.28,41.69l1.29,6.8c-2.5,2.95-2.71,6.1-1.43,9.72,4.64,13.13,13.91,22.67,24.16,31.42,4.34,3.71,9.09,6.63,15.23,6,2-.2,3.57-.94,4.33-2.77s-.14-3.23-1.41-4.43c-2.39-2.27-4.81-4.5-7.21-6.75l.82-1c4,1.81,8,3.72,12.06,5.38,1.21.49,2.68,2.71,4.06.09,7.12,4.57,15,7.59,22.53,11.41,6.68,3.4,12.91,7.38,17.79,13.2,8.2,9.79,9,20.56,2.35,31.61-1.62-3.44-.33-7.17-1-10.7-1-10.84-6.66-18.5-16.16-23.77,3.78,5.29,7.15,10.55,4.05,17.28-.05.11.12.31.14.47.84,6.43-1.56,9.21-8,10.91-7.93,2.09-15.63.35-23-1.52-24.95-6.33-44.49-21.13-60.77-40.66-4.08-4.89-6.52-10.81-10.23-16-.38,9-1.47,17.61-4.61,25.92-5.15,13.64-15.26,20.85-28.54,20.29-5.08-.22-8.88-3.31-13.27-5.07v0a.76.76,0,0,0-.68-1c-3.17-5.87-3.39-12-1.33-18.23A53.11,53.11,0,0,1,257,227c5.52-8.47,10.68-17.16,13.08-27.07,1.9-7.82,3.9-15.75,1.37-23.87.88-5.18-.94-9.82-3-14.39-.53-1.17-1.37-2.63-2.86-2.32s-.92,1.92-1,3c-.57,16.15-5.72,30.78-14.29,44.38-1.53,2.44-3.86,4.65-3.74,7.93-9.36,7.88-15.33,17.69-17.07,29.92-1.26,1.23-1.55,2.83-1.93,4.47A61,61,0,0,0,230,283.62c6.86,19.38,13.9,38.75,26.47,55.45a50.88,50.88,0,0,1,4,6.88c2.24,4.22,4.4,9.29.7,12.92-4.06,4-8.61.45-12.56-2.05-7.7-4.86-14.8-10.72-23.34-14.21-3.74-1.53-7.37-2-10.62,1.22s-3.35,6.65-2.29,10.58A80.1,80.1,0,0,0,224.09,379c1.09,1.59,1.91,3,1.71,5-.59,5.89.95,11.46,2.24,17.14,1.25,5.45,3.45,11.2-1.19,17.44-1.51-4.89-2.45-9.27-4.92-12.94-2.62-3.88-5.48-8.37-10.86-7.25s-5.53-1.29-5.36-5.18a85.42,85.42,0,0,0-5.58-33.12c-9.78-26.77-19.73-53.47-28.43-80.62a10.83,10.83,0,0,0-3.75-6c-.2,7.57,1.45,14.14,2.44,20.72,2.8,18.62,4.33,37.17-.56,55.7-2.54,9.62-6.5,18.47-13.71,25.53-12,11.76-28.7,8.6-35.42-6.61-.53-1.21-1-2.54-2.65-2.59-2.14-11.8-2.17-23.78-2.71-35.7-.69-14.93-1.37-29.85-3.57-44.65a25,25,0,0,0,0-3.46c-1.23-9.5-2.58-19-3.77-28.49-1.13-9.11-2.11-18.24-3.15-27.36-.62,5.34-1.48,10.58-1.72,15.84-.63,13.57-.58,27.18-1.21,40.76a87.79,87.79,0,0,1-6.56,30.42C91,323.89,83.43,328.24,74.54,326.37c-4-.84-5.11-5.14-8.76-6.06,1.45-12.48,5.73-24.21,10.4-35.7,15.5-38.1,19.34-77.55,15.59-118.22-3.2-34.54,5.8-66.11,25.8-94.48C165.25,4.31,264,.59,316.92,66.54c21,26.21,28,56.66,26.18,89.6-.2,3.82-.33,7.63-.49,11.45Zm-84.88-33.11c-.45-14.14-3.44-26.73-12.63-37.08C235,88.35,220.05,87.74,209,98.12c-8.42,7.87-12.4,17.87-13.67,29.09-1.84,16.18.12,31.58,10.65,44.76,11.65,14.59,29.69,14.18,41.06-.72C254.91,160.87,257.19,148.78,257.76,136.84Zm-103.44,1c0-12.31-1.22-22.46-6.13-31.83-3.76-7.19-8.6-13.57-17.45-13.68-8.39-.1-13.67,5.58-17.19,12.53-10.22,20.24-10.71,41.13-2.66,62.1,2.91,7.59,7.67,14.42,17,14.83,9.7.43,14.9-6.33,19-13.78A60.37,60.37,0,0,0,154.32,137.85ZM193,219.48c.1-11.6-1.44-22.93-7.47-33-8.23-13.79-21.07-13.48-29,.44a19.52,19.52,0,0,0-1.59,3.08c-7.55,21.24-7.51,42.24,2.41,62.76,2.77,5.75,7.15,10.42,14,10.45,7,0,11.41-4.64,14.57-10.49a48.23,48.23,0,0,0,2.3-4.94A73,73,0,0,0,193,219.48Zm196.5,35.19c2.77.22,4.3-.5,5-2.54.81-2.41-.11-4.27-2.1-5.57a103.12,103.12,0,0,0-19.89-10.05c-2.67-1-5.53-1.42-6.94,1.59-1.56,3.36.36,5.69,3.42,7.16q9,4.28,17.94,8.5A20.46,20.46,0,0,0,389.46,254.67ZM142,351.39h.42c0-3,.06-5.95,0-8.92s-.39-6-4.15-6.21c-4.07-.27-4.94,2.95-5.08,6-.3,6.44-.25,12.89-.25,19.34,0,2.84,1.36,5,4.34,5s4.56-1.91,4.69-4.76C142.1,358.34,142,354.86,142,351.39Zm80.4-43.4c-2.88.46-4.36,2.55-3.21,5.59,2.05,5.41,4.41,10.73,7,15.93,1,2.14,3.09,3.79,5.75,2.36,2.46-1.32,3.56-3.47,2.28-6.28-2.26-5-4.49-10-6.86-14.91C226.45,308.94,224.89,308,222.38,308ZM181.24,34.18c-3.88-.47-6.87.52-9.24,3.26a4.41,4.41,0,0,0-.68,5.07c.76,1.63,2.39,1.71,3.88,1.51s3.8-.24,4.66-1.26c2.71-3.2,6-3,9.55-2.71,2.78.25,4-1.95,5-4.12.76-1.66,0-2.87-1.23-3.9-1.88-1.55-3.68-.67-5.55.11C185.43,33,183.77,35.68,181.24,34.18ZM143.06,318.09c-.13-2.16-.05-4.32-1-6.35a4,4,0,0,0-4.45-2.41,3.68,3.68,0,0,0-3.45,3.11,24,24,0,0,0,.46,10.35,3.86,3.86,0,0,0,4.1,2.93,4,4,0,0,0,3.95-3.2A23.86,23.86,0,0,0,143.06,318.09Zm4.67-261.51a3.77,3.77,0,0,0-5.39-3.22,20.47,20.47,0,0,0-8.17,7.14c-1.38,2.08-1,4.68,2.11,5.42C138.89,66.53,147.65,59.24,147.73,56.58Zm63.36,232.71c-.06,4.17,3.13,9,6,8.9a4.26,4.26,0,0,0,4.45-4.32c.29-4.05-3.17-8.94-6.22-8.81C212.48,285.18,211.28,286.93,211.09,289.29Z"/><path class="cls-2" d="M20.39,255.44c-2.08-8.84,2.11-15.34,8.11-21,4.86-4.59,10.87-7.4,16.94-10,3.58-1.56,7.13-3.19,10.69-4.79,1.2,1.72-.52,2.75-1.09,3.94-1.11,2.31-1.14,4.41,1.26,5.53,5,2.32,4.14,5.9,2.23,9.53-2.3,4.37-5,8.55-7.47,12.82-1.21,2.42-3.47,3.43-5.8,4.41C36.91,259.37,28.62,259.43,20.39,255.44Zm19.84-8.54c2.39-.9,4.73-2.47,5-5.6a3.3,3.3,0,0,0-3.72-3.7c-3.23.21-5,2.47-5.33,5.53C35.9,245.55,37.43,246.71,40.23,246.9Z"/><path class="cls-3" d="M214.74,440c-.11-2.68,1.11-3.74,3.86-3.91,11.56-.75,18.8-8.74,19.18-20.46.28-8.66-1.64-17.05-2.64-25.55a61.48,61.48,0,0,1-.31-7.42c0-1.74.95-2.33,2.59-1.95,2.94,8.43,5.91,16.85,6.84,25.81,1.06,10.24-.56,19.81-7.51,27.86C231,441,223.17,442.88,214.74,440Z"/><path class="cls-2" d="M103,389.19l-21.51,0c2.88-4.28,2.38-9.15,2.49-14,.16-6.47,3.43-10,9.76-11.16,2.68-.51,4.08-.06,4.31,2.92C98.61,374.61,100.73,381.92,103,389.19Z"/><path class="cls-2" d="M58,359.3H45.18c0-6.42,0-12.84,0-19.26,0-1.58-.54-3.33.89-4.67C48,344.37,52.56,352.07,58,359.3Z"/><path class="cls-4" d="M45.23,321.46c-.09-2.06-.73-4.18.72-6.06A14,14,0,0,1,45.23,321.46Z"/><path class="cls-4" d="M362.68,166.76c1.17,1.22.85,2.68.66,4.12A5.42,5.42,0,0,1,362.68,166.76Z"/><path class="cls-4" d="M75.21,120c-.25-1.14-.37-2.24.68-3.09A3.33,3.33,0,0,1,75.21,120Z"/><path class="cls-3" d="M342.64,170l0-2.36A1.74,1.74,0,0,1,342.64,170Z"/><path class="cls-4" d="M438.43,266.5a5.3,5.3,0,0,1,.35.72c0,.06-.22.19-.33.29C438.44,267.17,438.43,266.84,438.43,266.5Z"/><path class="cls-1" d="M316.68,508.88l-2.18,3.23c-9.29,3.63-19.18,4.35-28.88,6l-31,2.68-20.92.35-38.94-.22-29.91-2c-10-1.84-20.26-2.22-30-5.6-1.83-1-3.77-2-4.22-4.33.38-2.47,2.6-3,4.27-4.18,9.79-2.67,19.82-4,29.87-5.09l30-1.91,10-.11,49.87.18,21.53,1.25a9.53,9.53,0,0,0,5.38.6l3,.13c10,1.82,20.33,2.24,30,6Z"/><path class="cls-1" d="M257.76,136.84c-.57,11.94-2.85,24-10.76,34.41-11.37,14.9-29.41,15.31-41.06.72-10.53-13.18-12.49-28.58-10.65-44.76C196.56,116,200.54,106,209,98.12c11.09-10.38,26-9.77,36.17,1.64C254.32,110.11,257.31,122.7,257.76,136.84Z"/><path class="cls-1" d="M154.32,137.85A60.37,60.37,0,0,1,146.89,168c-4.13,7.45-9.33,14.21-19,13.78-9.3-.41-14.06-7.24-17-14.83-8-21-7.56-41.86,2.66-62.1,3.52-7,8.8-12.63,17.19-12.53,8.85.11,13.69,6.49,17.45,13.68C153.1,115.39,154.29,125.54,154.32,137.85Z"/><path class="cls-1" d="M252.71,258.51c3.18,7.75,9.68,10.55,17.33,10.84,14.59.55,24.16-7.59,31.23-19.28,5.57-9.2,5.51-9.28,11.91-.75a94.77,94.77,0,0,0,16.91,17.34c-.25,1.92,1.81,2.69,2.22,4.62-3.94,0-7.2-2.1-10.75-3-5-1.28-9.3-.35-12.71,3.37a58.82,58.82,0,0,1-33.75,18.58c-5,.9-9.72-.58-14.43-1.84-3-.81-6-2-8.92-3.05-11.29-7.25-19.46-16.74-21.53-30.45-.51-3.4-.44-6.89-.63-10.35,1.74-12.23,7.71-22,17.07-29.92,6.68-4.67,11.38-11,14.94-18.21,2.59-5.24,4.08-10.85,5.71-16.41.65-2.18,1.29-4.22,4.18-4,2.53,8.12.53,16.05-1.37,23.87-2.4,9.91-7.56,18.6-13.08,27.07a53.11,53.11,0,0,0-6.35,12.3c-2.06,6.26-1.84,12.36,1.33,18.24-.16.59.14.87.68,1Z"/><path class="cls-1" d="M193,219.48a72.85,72.85,0,0,1-4.75,28.26,48.23,48.23,0,0,1-2.3,4.94c-3.16,5.85-7.52,10.52-14.57,10.49-6.89,0-11.27-4.7-14-10.45-9.92-20.52-10-41.52-2.41-62.76a19.52,19.52,0,0,1,1.59-3.08c7.95-13.92,20.79-14.23,29-.44C191.52,196.55,193.06,207.88,193,219.48Z"/><path class="cls-1" d="M310.37,70.16c2.09,3.71,4.28,7.36,6.24,11.14,1.55,3,2.11,6.34-1.36,8.24s-5.48-.75-7.14-3.4c-3.32-5.3-6.64-10.61-9.91-16-3.1-5-2.33-7.07,3.32-9l2,.87a.9.9,0,0,0,1.07.82l1.1,1.1a.85.85,0,0,0,.86,1l1.58,2.26a4.47,4.47,0,0,0,2.23,2.94Z"/><path class="cls-1" d="M389.46,254.67a20.46,20.46,0,0,1-2.58-.91q-9-4.22-17.94-8.5c-3.06-1.47-5-3.8-3.42-7.16,1.41-3,4.27-2.6,6.94-1.59a103.12,103.12,0,0,1,19.89,10.05c2,1.3,2.91,3.16,2.1,5.57C393.76,254.17,392.23,254.89,389.46,254.67Z"/><path class="cls-5" d="M271.49,176c-2.89-.25-3.53,1.79-4.18,4-1.63,5.56-3.12,11.17-5.71,16.41-3.56,7.24-8.26,13.54-14.94,18.21-.12-3.28,2.21-5.49,3.74-7.93,8.57-13.6,13.72-28.23,14.29-44.38,0-1.07-.51-2.68,1-3s2.33,1.15,2.86,2.32C270.55,166.19,272.37,170.83,271.49,176Z"/><path class="cls-1" d="M142,351.39c0,3.47.12,6.95,0,10.41-.13,2.85-1.84,4.77-4.69,4.76s-4.35-2.14-4.34-5c0-6.45,0-12.9.25-19.34.14-3,1-6.25,5.08-6,3.76.24,4.08,3.29,4.15,6.21s0,5.95,0,8.92Z"/><path class="cls-1" d="M222.38,308c2.51,0,4.07.95,4.91,2.69,2.37,4.93,4.6,9.93,6.86,14.91,1.28,2.81.18,5-2.28,6.28-2.66,1.43-4.7-.22-5.75-2.36-2.54-5.2-4.9-10.52-7-15.93C218,310.54,219.5,308.45,222.38,308Z"/><path class="cls-1" d="M143.06,318.09a23.86,23.86,0,0,1-.4,4.43,4,4,0,0,1-3.95,3.2,3.86,3.86,0,0,1-4.1-2.93,24,24,0,0,1-.46-10.35,3.68,3.68,0,0,1,3.45-3.11,4,4,0,0,1,4.45,2.41C143,313.77,142.93,315.93,143.06,318.09Z"/><path class="cls-1" d="M147.73,56.58c-.08,2.66-8.84,10-11.45,9.34-3.13-.74-3.49-3.34-2.11-5.42a20.47,20.47,0,0,1,8.17-7.14A3.77,3.77,0,0,1,147.73,56.58Z"/><path class="cls-1" d="M211.09,289.29c.19-2.36,1.39-4.11,4.19-4.23,3.05-.13,6.51,4.76,6.22,8.81a4.26,4.26,0,0,1-4.45,4.32C214.22,298.26,211,293.46,211.09,289.29Z"/><path class="cls-5" d="M310.37,70.16a4.47,4.47,0,0,1-2.23-2.94C310.49,67,310.69,68.38,310.37,70.16Z"/><path class="cls-5" d="M304.6,62.85a.9.9,0,0,1-1.07-.82Z"/><path class="cls-5" d="M252.7,258.49c-.54-.13-.84-.41-.68-1A.75.75,0,0,1,252.7,258.49Z"/><path class="cls-5" d="M306.56,65a.85.85,0,0,1-.86-1Z"/><path class="cls-3" d="M219.39,429.79c-.31,1.55-1.61,1.92-2.87,2.1s-1.73-.7-1.7-1.81c0-1.44.56-2.7,2.21-2.57C218.21,427.6,219,428.61,219.39,429.79Z"/><path class="cls-5" d="M302.54,324.36l-.21.43c.08-.14.15-.28.22-.42Z"/><path class="cls-1" d="M104.11,422c5,.08,18.47,10.2,20,15.05s-2.3,8.74-7.56,8.05c-5.83-.77-16.42-10.06-18-15.81A5.49,5.49,0,0,1,104.11,422Z"/><path class="cls-1" d="M15.24,298.23,22,301c8.5,7.26,12.19,16.13,9.2,27.26-5.17,4.53-8.19,4.26-12.11-1.12-3.68-5-7.4-10.06-11-15.16-3-4.21-3.5-8.43.45-12.43Z"/><path class="cls-1" d="M398.28,201.84c-3.45-1.56-5.83-4.07-5.53-8a10.57,10.57,0,0,1,6.61-9.19c12.54-5.76,28.24,3.82,29,17.76.21,3.64-.31,7.06-3.87,9s-6.37.37-9.06-1.86C411.71,202.58,405.37,201.36,398.28,201.84Z"/><path class="cls-1" d="M279.57,420a9.9,9.9,0,0,1,8-3.16l4.79,2.34a15,15,0,0,1,2.23,12.72c-1.48,5.78-3.87,7.78-10.05,8.26C277.75,436.17,276,429,279.57,420Z"/><path class="cls-1" d="M40.23,246.9c-2.8-.19-4.33-1.35-4-3.77.35-3.06,2.1-5.32,5.33-5.53a3.3,3.3,0,0,1,3.72,3.7C45,244.43,42.62,246,40.23,246.9Z"/><path class="cls-1" d="M351.46,419.12c-1.64,2.68-3.56,5-7,5.15-2.79-.62-3.87-2.82-4.8-5.16.13-3.58,1.5-6.42,4.84-8.07C350.21,411.66,351.35,413,351.46,419.12Z"/><path class="cls-1" d="M45.22,168.92c-5.28,2.21-10.31,2.16-14.75-1.89-5.25-4.79-4.94-10.78-3.49-17,3-6.08,7.23-10.86,14.22-12.42,9.22.18,12.31,2.83,14.2,12.19C55.11,157.85,51.93,164.33,45.22,168.92Z"/><path class="cls-1" d="M21.49,181.23a9.61,9.61,0,0,1,6.68-.35c3.92,4.41,4.44,8.27,1.38,11.23-2.48,2.4-5.29,2.64-8,.55C18.26,190.17,18.33,185.71,21.49,181.23Z"/><path class="cls-1" d="M425.15,329.32c-1.8,3.12-3.4,6.39-5.45,9.34-2.25,3.24-5.13,5.88-9.55,3.95-3.5-1.53-4.33-5.3-2.54-10.38.32-.93.69-1.85,1-2.77,1.19-1.75,2.31-3.55,3.58-5.24,2.29-3.06,5.11-5.31,9.2-3.87C425.81,321.9,425.8,325.54,425.15,329.32Z"/><path class="cls-4" d="M276.21,499.08c1.84-.24,3.72-.76,5.38.6A9.53,9.53,0,0,1,276.21,499.08Z"/><path class="cls-1" d="M329.69,122.85c.16,3.34-1,6.09-4.44,6.75-3.79.71-4.68-2.43-5.34-5.19-1.41-5.93-2.6-11.92-3.92-17.88-.65-2.9-.24-5.43,2.89-6.45s4.89,1.27,6.29,3.58S329.68,119.68,329.69,122.85Z"/><path class="cls-1" d="M403.26,143.83a14.72,14.72,0,0,1,4.65,8.58c0,.61.09,1.22.13,1.83a2.73,2.73,0,0,0-.49,2.55c-1.1,2.63-2.2,5.25-3.29,7.88-2.86,3-5.67,5.93-9.85,7.16-8.44,2.49-15-3.11-13.8-11.86.51-3.7,2.48-6.78,4-10.07,2.55-2.24,4.56-5.07,7.86-6.49A12,12,0,0,1,403.26,143.83Z"/><path class="cls-4" d="M407.55,156.79a2.73,2.73,0,0,1,.49-2.55A2.1,2.1,0,0,1,407.55,156.79Z"/></g></g></svg>